<svg width="32" height="32" viewBox="0 0 32 32" xmlns="http://www.w3.org/2000/svg">
    <g transform="translate(0.15835, 1.65835)">
        <path fill="currentColor" d="M31.65 2.66l-1.89 7.4-28.37-2.08-1.36-5.33c-.28-1.43 1.02-2.67 2.5-2.41l8.46 2.83c1.42-.44 3.03-.67 4.84-.64 1.81-.04 3.42.2 4.84.64l8.46-2.83c1.48-.27 2.77.98 2.5 2.41zM31.05 18.44c0 4.64-2.03 10.44-15.21 10.44S.62 23.08.62 18.44c0-1.81.42-4.8 1.66-7.76l-.3-1.16 15.73 1.15c-.05.22-.08.45-.08.68 0 1.99 1.96 3.6 4.37 3.6 2.41 0 4.37-1.61 4.37-3.6 0-.01 0-.03 0-.04l3.34.24c.98 2.67 1.32 5.26 1.32 6.89z"></path>
    </g>
</svg>
